<svg width="329" height="205" viewBox="0 0 329 205" fill="none" xmlns="http://www.w3.org/2000/svg">
<path d="M0 117.705C1.044 118.486 2.19795 119.188 3.46074 119.808C4.72243 120.43 6.01409 120.95 7.33464 121.369C8.65519 121.789 9.98351 122.105 11.3185 122.323C12.6535 122.539 13.9307 122.648 15.1491 122.648C19.8793 122.648 23.4211 121.737 25.7712 119.915C28.1224 118.094 29.2975 115.479 29.2975 112.066C29.2975 110.419 29.0209 108.981 28.4712 107.753C27.9192 106.524 27.0629 105.375 25.9023 104.306C24.7405 103.236 23.2756 102.175 21.5052 101.119C19.7349 100.065 17.6447 98.872 15.2368 97.5418C12.5668 96.0973 10.2812 94.7305 8.38086 93.4436C6.47945 92.1578 4.92678 90.8421 3.72285 89.4986C2.51781 88.1539 1.63264 86.7017 1.06732 85.1408C0.500899 83.5798 0.218798 81.8026 0.218798 79.8078C0.218798 77.2928 0.755236 75.0385 1.82922 73.0438C2.9021 71.049 4.35369 69.3516 6.18291 67.9482C8.01102 66.547 10.1512 65.4709 12.6035 64.7176C15.0558 63.9654 17.6758 63.5904 20.4613 63.5904C25.3658 63.5904 29.4729 64.2705 32.7815 65.6284V72.0031C29.0953 69.893 24.7716 68.838 19.8082 68.838C17.9501 68.838 16.202 69.0621 14.5615 69.5103C12.9222 69.9596 11.4851 70.6163 10.2523 71.4828C9.01837 72.3504 8.04656 73.4276 7.33575 74.7134C6.62495 76.0003 6.26954 77.4958 6.26954 79.201C6.26954 80.8207 6.50944 82.2142 6.98812 83.3857C7.46681 84.5561 8.23537 85.6622 9.29492 86.7028C10.3545 87.7435 11.7472 88.7774 13.4742 89.8036C15.2002 90.8299 17.3126 92.0081 19.8082 93.3371C22.4204 94.7239 24.6983 96.0763 26.643 97.3909C28.5867 98.7067 30.2049 100.079 31.4965 101.51C32.7882 102.941 33.7533 104.458 34.392 106.063C35.0306 107.667 35.3493 109.452 35.3493 111.418C35.3493 114.136 34.8407 116.528 33.8255 118.594C32.8093 120.662 31.3877 122.374 29.5596 123.732C27.7315 125.091 25.5546 126.117 23.0301 126.81C20.5057 127.504 17.7335 127.851 14.7148 127.851C13.7286 127.851 12.5524 127.771 11.1885 127.612C9.82469 127.454 8.44639 127.222 7.05254 126.919C5.65869 126.616 4.33148 126.255 3.06869 125.836C1.80701 125.418 0.784109 124.962 0 124.471V117.705Z" fill="#116490"/>
<path d="M76.7815 107.1C73.473 109.095 69.468 110.12 64.7656 110.179C61.5736 110.207 58.6993 109.659 56.1459 108.531C53.5915 107.403 51.4157 105.836 49.6165 103.826C47.8162 101.817 46.4379 99.4467 45.4805 96.7153C44.5231 93.9828 44.0444 91.0129 44.0444 87.8045C44.0444 84.4807 44.552 81.3521 45.5682 78.4166C46.5833 75.4833 48.0638 72.925 50.0085 70.7417C51.9533 68.5595 54.3323 66.8321 57.1488 65.5596C59.9632 64.2883 63.1851 63.6514 66.8136 63.6514C70.4987 63.6514 73.8661 64.3604 76.9137 65.776V71.6725C73.6629 69.5336 70.151 68.4641 66.3782 68.4641C63.7371 68.4641 61.3859 68.9622 59.3257 69.9596C57.2643 70.9569 55.5306 72.316 54.1235 74.0356C52.7163 75.7551 51.6423 77.7643 50.9026 80.0619C50.1629 82.3606 49.792 84.7957 49.792 87.3685C49.792 89.7393 50.1041 92.008 50.7282 94.1758C51.3513 96.3436 52.3098 98.2596 53.6015 99.9215C54.8931 101.583 56.5258 102.906 58.4994 103.889C60.473 104.873 62.7942 105.364 65.4642 105.364C69.6435 105.364 73.4163 104.122 76.7826 101.634V107.098L76.7815 107.1Z" fill="#116490"/>
<path d="M164.687 109.305V101.414H164.513C163.061 104.246 161.081 106.444 158.571 108.005C156.06 109.566 153.223 110.346 150.06 110.346C147.912 110.346 145.975 110.043 144.249 109.436C142.522 108.829 141.056 107.969 139.852 106.855C138.648 105.743 137.719 104.407 137.066 102.844C136.413 101.284 136.086 99.5643 136.086 97.6838C136.086 93.6666 137.333 90.4649 139.83 88.0796C142.326 85.6955 146.099 84.1412 151.149 83.419L164.687 81.4675C164.687 72.9406 161.364 68.676 154.718 68.676C149.523 68.676 144.705 70.5698 140.264 74.3562V68.2855C141.193 67.6209 142.245 67.0207 143.421 66.486C144.596 65.9513 145.836 65.4886 147.144 65.0992C148.45 64.7087 149.791 64.4059 151.171 64.1884C152.549 63.9721 153.892 63.8634 155.198 63.8634C160.16 63.8634 163.912 65.2512 166.451 68.0259C168.991 70.8005 170.26 74.9353 170.26 80.4269V109.305H164.687ZM153.194 87.7557C151.192 88.0452 149.479 88.4058 148.058 88.8396C146.635 89.2734 145.46 89.858 144.531 90.5958C143.602 91.3324 142.921 92.2433 142.486 93.3271C142.05 94.411 141.833 95.749 141.833 97.3388C141.833 98.5236 142.043 99.6231 142.463 100.634C142.884 101.646 143.493 102.52 144.292 103.257C145.089 103.994 146.062 104.565 147.208 104.969C148.354 105.374 149.653 105.577 151.104 105.577C153.078 105.577 154.891 105.201 156.546 104.45C158.201 103.699 159.629 102.657 160.834 101.328C162.04 99.9992 162.981 98.4094 163.664 96.5589C164.346 94.7095 164.687 92.6992 164.687 90.5314V86.1515L153.194 87.7557Z" fill="#116490"/>
<path d="M210.251 109.282V101.39H210.077C208.625 104.223 206.644 106.42 204.135 107.981C201.624 109.542 198.786 110.322 195.624 110.322C193.476 110.322 191.538 110.019 189.812 109.413C188.085 108.806 186.619 107.946 185.415 106.832C184.21 105.719 183.282 104.384 182.629 102.82C181.974 101.261 181.649 99.541 181.649 97.6605C181.649 93.6433 182.897 90.4416 185.393 88.0563C187.888 85.6722 191.662 84.1179 196.711 83.3957L210.251 81.4442C210.251 72.9173 206.927 68.6527 200.281 68.6527C195.087 68.6527 190.269 70.5465 185.828 74.3329V68.2622C186.757 67.5976 187.809 66.9974 188.985 66.4627C190.16 65.928 191.4 65.4654 192.706 65.0759C194.014 64.6854 195.355 64.3826 196.735 64.1651C198.112 63.9488 199.456 63.8401 200.762 63.8401C205.724 63.8401 209.476 65.2279 212.016 68.0026C214.555 70.7772 215.825 74.912 215.825 80.4036V109.282H210.253H210.251ZM198.757 87.7324C196.755 88.0219 195.042 88.3825 193.62 88.8163C192.198 89.2501 191.023 89.8347 190.094 90.5725C189.165 91.3091 188.484 92.22 188.048 93.3038C187.613 94.3877 187.395 95.7257 187.395 97.3155C187.395 98.5003 187.605 99.5998 188.026 100.61C188.447 101.622 189.057 102.496 189.854 103.234C190.652 103.971 191.625 104.542 192.772 104.946C193.918 105.351 195.216 105.554 196.667 105.554C198.641 105.554 200.455 105.178 202.109 104.427C203.764 103.675 205.192 102.634 206.397 101.305C207.601 99.9759 208.545 98.3861 209.227 96.5356C209.908 94.6862 210.25 92.6759 210.25 90.5081V86.1282L198.756 87.7324H198.757Z" fill="#116490"/>
<path d="M259.415 108.438V100.634H259.24C257.76 103.437 255.648 105.614 252.906 107.159C250.164 108.706 247.051 109.479 243.568 109.479C240.782 109.479 238.25 108.965 235.972 107.94C233.693 106.915 231.742 105.432 230.117 103.496C228.49 101.56 227.236 99.2181 226.351 96.4723C225.465 93.7265 225.023 90.618 225.023 87.1488C225.023 83.5654 225.508 80.2915 226.481 77.3283C227.454 74.3651 228.832 71.8223 230.617 69.6966C232.401 67.5721 234.549 65.9246 237.06 64.7531C239.571 63.5827 242.364 62.9969 245.441 62.9969C251.853 62.9969 256.455 65.5552 259.24 70.6718H259.415V42.7046H264.987V108.438H259.415ZM259.415 81.6417C259.415 79.7058 259.08 77.8985 258.413 76.2222C257.745 74.5459 256.817 73.0859 255.626 71.8423C254.436 70.5986 253.007 69.6168 251.339 68.8934C249.67 68.1712 247.834 67.8095 245.833 67.8095C243.626 67.8095 241.595 68.2433 239.738 69.1098C237.879 69.9773 236.29 71.2276 234.97 72.8607C233.649 74.4937 232.618 76.4818 231.88 78.8227C231.14 81.1646 230.769 83.8239 230.769 86.8005C230.769 89.6051 231.102 92.1201 231.77 94.3456C232.437 96.5711 233.388 98.4504 234.621 99.9825C235.854 101.516 237.327 102.686 239.04 103.495C240.753 104.305 242.654 104.71 244.742 104.71C247.007 104.71 249.046 104.305 250.859 103.495C252.673 102.687 254.212 101.572 255.474 100.157C256.737 98.7411 257.71 97.0781 258.392 95.1699C259.073 93.2617 259.415 91.2248 259.415 89.0559V81.6417Z" fill="#116490"/>
<path d="M78.1921 204.822L57.06 149.11H30.287L23.5821 167.494H17.1393L40.908 105.315H46.7422L84.6337 204.822H78.1921ZM44.9141 116.199C44.7108 115.65 44.5009 115.014 44.2832 114.292C44.0655 113.569 43.8834 112.745 43.739 111.82H43.5646C43.3903 112.746 43.1948 113.571 42.9771 114.292C42.7594 115.013 42.5484 115.65 42.3463 116.199L32.2462 143.863H55.1019L44.9141 116.199Z" fill="#9FBACD"/>
<path d="M120.204 68.2056C117.707 65.1714 113.979 63.6526 109.016 63.6526C102.515 63.6526 97.5227 66.5581 94.0398 72.3681H93.8654L93.7643 0H88.1912L87.9191 113.422C89.996 113.582 91.8563 114.045 93.51 114.801L93.8654 84.2488C93.8654 81.7926 94.2286 79.5882 94.9538 77.6367C95.6791 75.6853 96.652 74.0311 97.8704 72.6721C98.7789 71.6592 99.8007 70.8249 100.935 70.1659C101.322 69.9407 101.722 69.7344 102.136 69.5502C103.536 68.9278 105.005 68.5906 106.534 68.504C106.78 68.4896 107.024 68.4663 107.273 68.4663C111.075 68.4663 113.875 69.6445 115.675 71.9998C117.474 74.3562 118.374 78.0206 118.374 82.9919V109.094H123.946V81.6472C123.946 75.7219 122.698 71.2409 120.202 68.2045L120.204 68.2056Z" fill="#116490"/>
<path d="M102.137 69.5491C101.723 69.7333 101.323 69.9396 100.936 70.1648L100.199 121.009H100.025C98.4445 118.107 96.2588 116.057 93.5111 114.801C91.8573 114.045 89.997 113.582 87.9201 113.422C87.3648 113.38 86.8106 113.334 86.2253 113.334C83.1488 113.334 80.3545 113.92 77.8445 115.091C75.3333 116.262 73.1864 117.91 71.4016 120.034C69.6169 122.159 68.2386 124.702 67.2656 127.666C66.2927 130.629 65.8074 133.903 65.8074 137.486C65.8074 140.955 66.2494 144.063 67.1357 146.81C68.0209 149.556 69.2759 151.897 70.9008 153.833C72.5267 155.772 74.477 157.253 76.756 158.278C79.0339 159.303 81.5662 159.818 84.3528 159.818C87.8357 159.818 90.9477 159.044 93.691 157.498C96.4332 155.951 98.5456 153.777 100.025 150.971H100.199V158.776H105.771L106.537 68.5029C105.007 68.5895 103.538 68.9267 102.139 69.5491H102.137ZM100.199 139.394C100.199 141.562 99.8573 143.599 99.1753 145.508C98.4934 147.415 97.5205 149.078 96.2588 150.495C94.996 151.911 93.4578 153.025 91.6441 153.833C89.8304 154.644 87.7913 155.048 85.5278 155.048C83.4387 155.048 81.5373 154.644 79.8247 153.833C78.1121 153.026 76.6394 151.855 75.4055 150.322C74.1716 148.789 73.222 146.912 72.5545 144.685C71.887 142.46 71.5527 139.945 71.5527 137.14C71.5527 134.164 71.9225 131.503 72.6633 129.162C73.403 126.82 74.4337 124.833 75.7542 123.199C77.0748 121.567 78.663 120.317 80.5211 119.448C82.3781 118.581 84.4105 118.148 86.6162 118.148C88.6187 118.148 90.4546 118.511 92.1228 119.233C93.7921 119.956 95.2204 120.939 96.411 122.182C97.6004 123.424 98.5289 124.886 99.1975 126.562C99.865 128.238 100.199 130.045 100.199 131.981V139.394Z" fill="#9FBACD"/>
<path d="M138.143 158.635H132.832L115.767 114.234H121.906L134.226 148.056C134.98 150.108 135.459 151.914 135.662 153.475H135.836C136.184 151.394 136.634 149.644 137.186 148.229L149.941 114.234H155.905L138.143 158.635Z" fill="#9FBACD"/>
<path d="M164.556 159.197L164.688 108.687H170.262L170.129 159.197H164.556Z" fill="#9FBACD"/>
<path d="M180.599 150.564C181.44 151.23 182.355 151.822 183.342 152.342C184.328 152.862 185.343 153.31 186.388 153.686C187.433 154.062 188.486 154.344 189.546 154.532C190.603 154.72 191.614 154.814 192.57 154.814C199.187 154.814 202.497 152.343 202.497 147.4C202.497 146.273 202.263 145.298 201.798 144.473C201.333 143.649 200.667 142.898 199.797 142.218C198.926 141.538 197.881 140.91 196.661 140.332C195.444 139.755 194.065 139.147 192.525 138.51C190.465 137.673 188.694 136.819 187.217 135.952C185.736 135.084 184.517 134.139 183.557 133.113C182.601 132.088 181.89 130.96 181.425 129.73C180.96 128.502 180.728 127.107 180.728 125.546C180.728 123.581 181.156 121.831 182.012 120.299C182.867 118.768 184.021 117.467 185.472 116.397C186.922 115.328 188.599 114.511 190.501 113.947C192.402 113.382 194.398 113.1 196.486 113.1C200.347 113.1 203.713 113.824 206.587 115.269V121.122C203.248 118.983 199.65 117.913 195.79 117.913C194.398 117.913 193.126 118.087 191.98 118.433C190.834 118.779 189.853 119.272 189.041 119.906C188.229 120.542 187.598 121.302 187.148 122.183C186.698 123.064 186.474 124.04 186.474 125.11C186.474 126.209 186.646 127.169 186.994 127.993C187.343 128.817 187.887 129.562 188.627 130.226C189.367 130.892 190.324 131.526 191.499 132.133C192.674 132.741 194.106 133.391 195.787 134.085C197.934 134.952 199.793 135.813 201.359 136.665C202.929 137.517 204.219 138.443 205.234 139.44C206.25 140.437 207.005 141.551 207.497 142.779C207.991 144.008 208.236 145.432 208.236 147.049C208.236 149.044 207.823 150.822 206.997 152.383C206.168 153.944 205.022 155.26 203.557 156.33C202.092 157.399 200.373 158.209 198.398 158.758C196.426 159.307 194.277 159.582 191.956 159.582C187.458 159.582 183.669 158.642 180.595 156.763V150.563L180.599 150.564Z" fill="#9FBACD"/>
<path d="M238.058 160.38C234.75 160.38 231.782 159.83 229.155 158.731C226.528 157.633 224.286 156.08 222.43 154.071C220.572 152.062 219.15 149.655 218.164 146.851C217.177 144.048 216.684 140.94 216.684 137.529C216.684 133.83 217.206 130.519 218.251 127.6C219.295 124.681 220.782 122.201 222.713 120.164C224.642 118.126 226.972 116.573 229.7 115.503C232.426 114.434 235.475 113.898 238.841 113.898C242.062 113.898 244.965 114.426 247.549 115.481C250.131 116.537 252.322 118.062 254.121 120.056C255.921 122.051 257.3 124.478 258.257 127.341C259.215 130.203 259.693 133.455 259.693 137.097C259.693 140.565 259.192 143.724 258.192 146.571C257.19 149.418 255.761 151.869 253.904 153.92C252.046 155.973 249.782 157.562 247.113 158.69C244.443 159.818 241.424 160.38 238.058 160.38ZM238.494 118.709C236.056 118.709 233.85 119.13 231.876 119.967C229.903 120.806 228.212 122.027 226.804 123.631C225.396 125.236 224.315 127.202 223.561 129.528C222.806 131.856 222.43 134.493 222.43 137.442C222.43 140.218 222.807 142.718 223.561 144.944C224.316 147.17 225.382 149.077 226.762 150.667C228.14 152.258 229.816 153.48 231.79 154.332C233.763 155.184 235.969 155.61 238.407 155.61C240.902 155.61 243.108 155.198 245.024 154.374C246.94 153.549 248.565 152.351 249.901 150.774C251.235 149.199 252.244 147.27 252.926 144.986C253.607 142.703 253.949 140.101 253.949 137.181C253.949 131.198 252.614 126.623 249.943 123.458C247.272 120.293 243.456 118.709 238.494 118.709Z" fill="#9FBACD"/>
<path d="M293.773 119.283C292.467 118.329 290.785 117.852 288.723 117.852C287.243 117.852 285.937 118.134 284.805 118.697C283.674 119.261 282.679 120.02 281.823 120.974C280.965 121.927 280.24 123.033 279.645 124.29C279.05 125.548 278.572 126.857 278.209 128.215C277.846 129.573 277.585 130.946 277.426 132.334C277.266 133.721 277.186 135.038 277.186 136.279L277.012 172.752H271.483L271.657 113.603H277.186V123.099H277.36C277.881 121.481 278.542 120.027 279.341 118.74C280.138 117.455 281.06 116.372 282.105 115.49C283.15 114.608 284.288 113.937 285.521 113.473C286.755 113.011 288.053 112.78 289.417 112.78C290.317 112.78 291.122 112.837 291.834 112.953C292.545 113.069 293.19 113.242 293.771 113.473V119.283H293.773Z" fill="#9FBACD"/>
<path d="M300.541 150.642C301.382 151.307 302.297 151.9 303.284 152.42C304.27 152.939 305.286 153.387 306.331 153.764C307.376 154.14 308.427 154.421 309.488 154.61C310.546 154.797 311.556 154.892 312.513 154.892C319.13 154.892 322.439 152.421 322.439 147.478C322.439 146.35 322.205 145.375 321.741 144.551C321.277 143.727 320.608 142.976 319.739 142.296C318.869 141.615 317.823 140.988 316.605 140.41C315.386 139.833 314.007 139.225 312.469 138.588C310.408 137.75 308.637 136.897 307.159 136.03C305.678 135.162 304.459 134.217 303.501 133.191C302.544 132.165 301.833 131.037 301.368 129.808C300.903 128.58 300.671 127.184 300.671 125.623C300.671 123.658 301.099 121.909 301.955 120.377C302.81 118.846 303.966 117.545 305.416 116.475C306.866 115.406 308.542 114.589 310.445 114.024C312.345 113.461 314.341 113.178 316.43 113.178C320.29 113.178 323.657 113.901 326.53 115.347V121.2C323.192 119.061 319.593 117.991 315.734 117.991C314.341 117.991 313.071 118.165 311.924 118.511C310.777 118.857 309.797 119.35 308.986 119.984C308.173 120.62 307.541 121.38 307.091 122.261C306.641 123.142 306.417 124.118 306.417 125.187C306.417 126.287 306.59 127.246 306.938 128.071C307.286 128.895 307.831 129.639 308.57 130.304C309.31 130.97 310.268 131.604 311.443 132.211C312.618 132.819 314.049 133.469 315.732 134.162C317.878 135.03 319.737 135.891 321.304 136.743C322.871 137.595 324.162 138.52 325.178 139.518C326.193 140.515 326.948 141.629 327.441 142.857C327.934 144.086 328.181 145.509 328.181 147.127C328.181 149.122 327.768 150.9 326.94 152.461C326.113 154.022 324.967 155.338 323.502 156.407C322.037 157.477 320.316 158.287 318.343 158.836C316.369 159.385 314.221 159.66 311.9 159.66C307.401 159.66 303.613 158.719 300.538 156.841V150.641L300.541 150.642Z" fill="#9FBACD"/>
</svg>
